<svg width="128" height="128" viewBox="0 0 128 128" xmlns="http://www.w3.org/2000/svg">
  <!-- 背景 -->
  <rect x="8" y="8" width="112" height="112" rx="12" fill="#1a73e8" />
  <rect x="12" y="12" width="104" height="104" rx="10" fill="white" />

  <!-- 引号装饰 -->
  <path d="M40 40 L40 60 Q50 60 50 70 L40 70 L40 90 L60 90 L60 70 Q60 60 55 50 Q50 40 40 40Z"
    fill="#1a73e8" opacity="0.2" />
  <path d="M70 40 L70 60 Q80 60 80 70 L70 70 L70 90 L90 90 L90 70 Q90 60 85 50 Q80 40 70 40Z"
    fill="#1a73e8" opacity="0.2" />

  <!-- 文本线条 -->
  <rect x="30" y="45" width="68" height="4" rx="2" fill="#1a73e8" opacity="0.8" />
  <rect x="30" y="55" width="48" height="4" rx="2" fill="#1a73e8" opacity="0.6" />
  <rect x="30" y="65" width="58" height="4" rx="2" fill="#1a73e8" opacity="0.4" />
</svg>
